<svg width="56" height="39" viewBox="0 0 56 39" fill="none" xmlns="http://www.w3.org/2000/svg">
<g clip-path="url(#clip0_55_188)">
<path d="M3.03 0H52.16C53.83 0 55.19 1.36 55.19 3.03V35.36C55.19 37.03 53.83 38.39 52.16 38.39H3.03C1.36 38.4 0 37.04 0 35.37V3.03C0 1.36 1.36 0 3.03 0Z" fill="#009B3A"/>
<path d="M4.24023 19.2L27.6002 34.11L50.9602 19.2L27.6002 4.29004L4.24023 19.2Z" fill="#FEDF00"/>
<path d="M27.6 9.3501C33.04 9.3501 37.45 13.7601 37.45 19.2001C37.45 24.6401 33.04 29.0501 27.6 29.0501C22.16 29.0501 17.75 24.6401 17.75 19.2001C17.75 13.7601 22.16 9.3501 27.6 9.3501Z" fill="#002776"/>
<path d="M18.5901 15.22C19.6901 15.06 20.8201 14.98 21.9701 14.98C27.8301 14.98 33.1901 17.09 37.3501 20.58C37.2801 21.12 37.1601 21.64 37.0001 22.14C33.0201 18.56 27.7501 16.38 21.9701 16.38C20.6401 16.38 19.3301 16.5 18.0601 16.72C18.2001 16.2 18.3801 15.7 18.5901 15.22Z" fill="white"/>
<path fill-rule="evenodd" clip-rule="evenodd" d="M19.1799 16.15C19.3199 16.13 19.4099 15.99 19.3899 15.83C19.3699 15.67 19.2399 15.55 19.1099 15.57C18.9799 15.59 18.8799 15.73 18.8999 15.89C18.9199 16.05 19.0399 16.16 19.1799 16.15ZM19.1999 16.32C19.4299 16.29 19.5999 16.06 19.5599 15.8C19.5299 15.54 19.3199 15.36 19.0799 15.39C18.8499 15.42 18.6899 15.65 18.7199 15.91C18.7599 16.16 18.9699 16.35 19.1999 16.32Z" fill="#009B3A"/>
<path fill-rule="evenodd" clip-rule="evenodd" d="M20.1002 15.7001L20.4602 15.6801C20.5302 15.6701 20.5802 15.6201 20.5702 15.5501C20.5702 15.4801 20.5102 15.4301 20.4402 15.4401L20.0802 15.4701L20.1002 15.7001ZM19.9602 16.2401L20.1302 16.2301L20.1102 15.8801L20.4802 15.8501C20.6402 15.8401 20.7702 15.7001 20.7502 15.5401C20.7402 15.3801 20.6002 15.2601 20.4402 15.2701L19.9102 15.3101L19.9602 16.2401Z" fill="#009B3A"/>
<path d="M20.76 16.18C20.75 16.05 20.73 15.75 20.53 15.77L20.27 15.79C20.56 15.77 20.58 16.06 20.6 16.2L20.76 16.18Z" fill="#009B3A"/>
<path fill-rule="evenodd" clip-rule="evenodd" d="M21.3201 15.98H21.5701C21.7101 15.98 21.8201 15.86 21.8201 15.72V15.64C21.8201 15.5 21.7001 15.39 21.5601 15.39L21.3001 15.4L21.3201 15.98ZM21.1501 16.16L21.5901 16.15C21.8101 16.14 21.9901 15.96 21.9901 15.74V15.61C21.9901 15.39 21.8001 15.21 21.5801 15.21L21.1401 15.22L21.1501 16.16Z" fill="#009B3A"/>
<path d="M22.3398 16.15L23.1898 16.18V16.01L22.5098 15.98L22.5198 15.74L23.0498 15.76L23.0598 15.6L22.5198 15.58L22.5298 15.39L23.1698 15.42L23.1798 15.24L22.3798 15.21L22.3398 16.15Z" fill="#009B3A"/>
<path d="M23.5298 16.2L23.6898 16.22L23.7498 15.57L23.8798 16.23L24.0298 16.25L24.2698 15.62L24.2098 16.26L24.3698 16.27L24.4598 15.34L24.2198 15.32L23.9798 15.94L23.8498 15.29L23.6198 15.27L23.5298 16.2Z" fill="#009B3A"/>
<path d="M25.48 16.4201L26.17 16.5401L26.2 16.3801L25.66 16.2901L25.7 16.0801L26.13 16.1501L26.16 16.0001L25.73 15.9201L25.75 15.7701L26.27 15.8601L26.3 15.7001L25.62 15.5901L25.48 16.4201Z" fill="#009B3A"/>
<path fill-rule="evenodd" clip-rule="evenodd" d="M27.5598 16.3101L27.9098 16.4001C27.9698 16.4101 28.0398 16.3801 28.0598 16.3101C28.0698 16.2501 28.0398 16.1801 27.9698 16.1601L27.6198 16.0701L27.5598 16.3101ZM27.2598 16.7701L27.4298 16.8101L27.5198 16.4701L27.8798 16.5601C28.0398 16.6001 28.1998 16.5101 28.2398 16.3501C28.2798 16.1901 28.1898 16.0301 28.0298 15.9901L27.5098 15.8501L27.2598 16.7701Z" fill="#009B3A"/>
<path fill-rule="evenodd" clip-rule="evenodd" d="M28.7302 16.6299L29.0702 16.7399C29.1302 16.7599 29.2002 16.7299 29.2202 16.6599C29.2402 16.5999 29.2102 16.5299 29.1402 16.5099L28.8002 16.3999L28.7302 16.6299ZM28.4102 17.0799L28.5802 17.1299L28.6902 16.7999L29.0502 16.9099C29.2002 16.9599 29.3702 16.8699 29.4202 16.7199C29.4702 16.5699 29.3802 16.3999 29.2302 16.3499L28.7202 16.1899L28.4102 17.0799Z" fill="#009B3A"/>
<path d="M29.1701 17.32C29.2101 17.19 29.3001 16.91 29.1101 16.85L28.8701 16.77C29.1501 16.86 29.0601 17.14 29.0201 17.27L29.1701 17.32Z" fill="#009B3A"/>
<path fill-rule="evenodd" clip-rule="evenodd" d="M30.0002 17.4299C30.1302 17.4799 30.2802 17.3899 30.3302 17.2399C30.3902 17.0899 30.3302 16.9199 30.2002 16.8799C30.0702 16.8299 29.9202 16.9199 29.8702 17.0699C29.8102 17.2199 29.8702 17.3799 30.0002 17.4299ZM29.9402 17.5899C30.1602 17.6699 30.4102 17.5399 30.5002 17.2999C30.5902 17.0599 30.4902 16.7899 30.2702 16.7099C30.0502 16.6299 29.8002 16.7599 29.7102 16.9999C29.6202 17.2499 29.7202 17.5099 29.9402 17.5899Z" fill="#009B3A"/>
<path fill-rule="evenodd" clip-rule="evenodd" d="M31.1102 17.8799C31.2402 17.9299 31.3902 17.8599 31.4602 17.7099L31.6202 17.7799C31.5202 18.0199 31.2602 18.1299 31.0502 18.0399C30.8302 17.9499 30.7402 17.6799 30.8502 17.4399C30.9502 17.1999 31.2102 17.0799 31.4202 17.1799C31.5902 17.2499 31.6802 17.4299 31.6602 17.6199L31.4902 17.5399C31.4802 17.4499 31.4302 17.3699 31.3502 17.3399C31.2302 17.2799 31.0702 17.3599 31.0102 17.5099C30.9402 17.6599 30.9802 17.8199 31.1102 17.8799Z" fill="#009B3A"/>
<path d="M31.2902 17.6399L31.6202 17.7799L31.5602 17.8999L31.2402 17.7599L31.2902 17.6399Z" fill="#009B3A"/>
<path d="M31.4898 17.72L31.6198 17.78L31.4298 18.21L31.2998 18.15L31.4898 17.72Z" fill="#009B3A"/>
<path fill-rule="evenodd" clip-rule="evenodd" d="M32.1302 17.96L32.4502 18.12C32.5102 18.15 32.5802 18.13 32.6102 18.07C32.6402 18.01 32.6202 17.94 32.5502 17.91L32.2302 17.75L32.1302 17.96ZM31.7402 18.35L31.9002 18.43L32.0502 18.12L32.3802 18.29C32.5302 18.36 32.7002 18.3 32.7802 18.16C32.8502 18.01 32.7902 17.84 32.6502 17.76L32.1702 17.52L31.7402 18.35Z" fill="#009B3A"/>
<path d="M32.4602 18.7099C32.5202 18.5899 32.6502 18.3299 32.4702 18.2399L32.2402 18.1299C32.5002 18.2599 32.3702 18.5299 32.3102 18.6399L32.4602 18.7099Z" fill="#009B3A"/>
<path d="M32.8101 18.8901L33.5401 19.3101L33.6301 19.1601L33.0301 18.8201L33.1501 18.6101L33.6201 18.8701L33.6901 18.7301L33.2301 18.4701L33.3201 18.3101L33.8801 18.6201L33.9701 18.4701L33.2701 18.0801L32.8101 18.8901Z" fill="#009B3A"/>
<path d="M34.1798 19.3499C34.1298 19.4299 34.1798 19.5199 34.2898 19.5899C34.3998 19.6599 34.4798 19.6599 34.5098 19.6099C34.6098 19.4499 34.0198 19.2099 34.1998 18.9299C34.3598 18.6899 34.6298 18.8799 34.7298 18.9399C34.8298 18.9999 34.9898 19.1699 34.8698 19.3599L34.6998 19.2499C34.7498 19.1599 34.6898 19.0799 34.5998 19.0299C34.5098 18.9799 34.4398 18.9499 34.3898 19.0299C34.2998 19.1599 34.8798 19.4099 34.7098 19.6899C34.5798 19.8999 34.3498 19.8099 34.1898 19.7099C34.0598 19.6299 33.8698 19.4299 33.9898 19.2299L34.1798 19.3499Z" fill="#009B3A"/>
<path d="M35.1801 20.0199C35.1301 20.0999 35.1701 20.1899 35.2801 20.2599C35.3901 20.3399 35.4701 20.3399 35.5001 20.2899C35.6101 20.1299 35.0301 19.8699 35.2301 19.5999C35.4001 19.3699 35.66 19.5699 35.76 19.6399C35.8601 19.7099 36.0101 19.8899 35.8801 20.0699L35.7101 19.9499C35.7701 19.8699 35.7101 19.7899 35.6301 19.7199C35.5501 19.6599 35.48 19.6299 35.42 19.7099C35.32 19.8299 35.8901 20.1099 35.7001 20.3799C35.5601 20.5799 35.3301 20.4799 35.1901 20.3699C35.0601 20.2799 34.8801 20.0699 35.0201 19.8799L35.1801 20.0199Z" fill="#009B3A"/>
<path fill-rule="evenodd" clip-rule="evenodd" d="M36.2399 20.9599C36.3499 21.0399 36.5199 21.0099 36.6199 20.8799C36.7199 20.7499 36.7199 20.5799 36.6099 20.4999C36.5099 20.4099 36.3299 20.4499 36.2399 20.5799C36.1299 20.6999 36.1299 20.8799 36.2399 20.9599ZM36.1299 21.0999C36.3099 21.2499 36.5899 21.1999 36.7499 20.9999C36.9099 20.7999 36.8899 20.5199 36.7099 20.3699C36.5299 20.2199 36.2499 20.2699 36.0899 20.4699C35.9299 20.6699 35.9499 20.9499 36.1299 21.0999Z" fill="#009B3A"/>
<path d="M19.5602 17.01L19.4302 17.41L19.6302 17.48L19.5602 17.01Z" fill="white"/>
<path d="M19.5602 17.01L19.6902 17.41L19.4902 17.48L19.5602 17.01Z" fill="white"/>
<path d="M19.96 17.3H19.54V17.51L19.96 17.3Z" fill="white"/>
<path d="M19.9602 17.3L19.6202 17.55L19.4902 17.38L19.9602 17.3Z" fill="white"/>
<path d="M19.1602 17.3L19.5002 17.55L19.6202 17.38L19.1602 17.3Z" fill="white"/>
<path d="M19.1602 17.3H19.5802V17.51L19.1602 17.3Z" fill="white"/>
<path d="M19.81 17.7701L19.68 17.3701L19.48 17.4401L19.81 17.7701Z" fill="white"/>
<path d="M19.8102 17.7701L19.4702 17.5301L19.5902 17.3501L19.8102 17.7701Z" fill="white"/>
<path d="M19.3101 17.7701L19.6501 17.5301L19.5301 17.3501L19.3101 17.7701Z" fill="white"/>
<path d="M19.3101 17.7701L19.4401 17.3701L19.6401 17.4401L19.3101 17.7701Z" fill="white"/>
<path d="M20.4298 21.1499L20.2998 21.5499L20.4998 21.6199L20.4298 21.1499Z" fill="white"/>
<path d="M20.4299 21.1499L20.5599 21.5499L20.3599 21.6199L20.4299 21.1499Z" fill="white"/>
<path d="M20.8302 21.4399H20.4102V21.6499L20.8302 21.4399Z" fill="white"/>
<path d="M20.8301 21.4399L20.4901 21.6899L20.3701 21.5199L20.8301 21.4399Z" fill="white"/>
<path d="M20.0298 21.4399L20.3698 21.6899L20.4998 21.5199L20.0298 21.4399Z" fill="white"/>
<path d="M20.0298 21.4399H20.4498V21.6499L20.0298 21.4399Z" fill="white"/>
<path d="M20.6801 21.91L20.5501 21.51L20.3501 21.58L20.6801 21.91Z" fill="white"/>
<path d="M20.6798 21.91L20.3398 21.67L20.4598 21.49L20.6798 21.91Z" fill="white"/>
<path d="M20.1802 21.91L20.5202 21.67L20.4002 21.49L20.1802 21.91Z" fill="white"/>
<path d="M20.1802 21.91L20.3102 21.51L20.5102 21.58L20.1802 21.91Z" fill="white"/>
<path d="M19.2201 22.1101L19.1201 22.4401L19.2801 22.4901L19.2201 22.1101Z" fill="white"/>
<path d="M19.2199 22.1101L19.3299 22.4401L19.1699 22.4901L19.2199 22.1101Z" fill="white"/>
<path d="M19.56 22.3501H19.21V22.5201L19.56 22.3501Z" fill="white"/>
<path d="M19.5599 22.3501L19.2699 22.5501L19.1699 22.4101L19.5599 22.3501Z" fill="white"/>
<path d="M18.8901 22.3501L19.1801 22.5501L19.2801 22.4101L18.8901 22.3501Z" fill="white"/>
<path d="M18.8901 22.3501H19.2401V22.5201L18.8901 22.3501Z" fill="white"/>
<path d="M19.4299 22.7399L19.3199 22.3999L19.1499 22.4599L19.4299 22.7399Z" fill="white"/>
<path d="M19.4299 22.7399L19.1499 22.5299L19.2499 22.3899L19.4299 22.7399Z" fill="white"/>
<path d="M19.02 22.7399L19.3 22.5299L19.2 22.3899L19.02 22.7399Z" fill="white"/>
<path d="M19.02 22.7399L19.13 22.3999L19.29 22.4599L19.02 22.7399Z" fill="white"/>
<path d="M21.4001 20.77L21.3301 20.96L21.4301 20.99L21.4001 20.77Z" fill="white"/>
<path d="M21.3999 20.77L21.4599 20.96L21.3599 20.99L21.3999 20.77Z" fill="white"/>
<path d="M21.5901 20.9099H21.3901V21.0099L21.5901 20.9099Z" fill="white"/>
<path d="M21.5901 20.9099L21.4201 21.0299L21.3701 20.9499L21.5901 20.9099Z" fill="white"/>
<path d="M21.2002 20.9099L21.3702 21.0299L21.4302 20.9499L21.2002 20.9099Z" fill="white"/>
<path d="M21.2002 20.9099H21.4102V21.0099L21.2002 20.9099Z" fill="white"/>
<path d="M21.5099 21.1299L21.4499 20.9399L21.3599 20.9699L21.5099 21.1299Z" fill="white"/>
<path d="M21.5101 21.1299L21.3501 21.0099L21.4101 20.9299L21.5101 21.1299Z" fill="white"/>
<path d="M21.2798 21.1299L21.4398 21.0099L21.3798 20.9299L21.2798 21.1299Z" fill="white"/>
<path d="M21.2798 21.1299L21.3398 20.9399L21.4298 20.9699L21.2798 21.1299Z" fill="white"/>
<path d="M22.4801 22.2L22.3701 22.53L22.5401 22.59L22.4801 22.2Z" fill="white"/>
<path d="M22.4799 22.2L22.5899 22.53L22.4199 22.59L22.4799 22.2Z" fill="white"/>
<path d="M22.82 22.4399H22.46V22.6199L22.82 22.4399Z" fill="white"/>
<path d="M22.8202 22.4399L22.5302 22.6499L22.4302 22.5099L22.8202 22.4399Z" fill="white"/>
<path d="M22.1499 22.4399L22.4299 22.6499L22.5299 22.5099L22.1499 22.4399Z" fill="white"/>
<path d="M22.1499 22.4399H22.4999V22.6199L22.1499 22.4399Z" fill="white"/>
<path d="M22.6902 22.84L22.5802 22.5L22.4102 22.55L22.6902 22.84Z" fill="white"/>
<path d="M22.6899 22.84L22.3999 22.63L22.5099 22.49L22.6899 22.84Z" fill="white"/>
<path d="M22.2798 22.84L22.5598 22.63L22.4598 22.49L22.2798 22.84Z" fill="white"/>
<path d="M22.2798 22.84L22.3798 22.5L22.5498 22.55L22.2798 22.84Z" fill="white"/>
<path d="M22.1901 23.25L22.1001 23.52L22.2301 23.56L22.1901 23.25Z" fill="white"/>
<path d="M22.1901 23.25L22.2701 23.52L22.1401 23.56L22.1901 23.25Z" fill="white"/>
<path d="M22.4499 23.4399H22.1699V23.5799L22.4499 23.4399Z" fill="white"/>
<path d="M22.4501 23.4399L22.2301 23.6099L22.1401 23.4899L22.4501 23.4399Z" fill="white"/>
<path d="M21.9199 23.4399L22.1499 23.6099L22.2299 23.4899L21.9199 23.4399Z" fill="white"/>
<path d="M21.9199 23.4399H22.1999V23.5799L21.9199 23.4399Z" fill="white"/>
<path d="M22.3499 23.76L22.2599 23.49L22.1299 23.53L22.3499 23.76Z" fill="white"/>
<path d="M22.3501 23.76L22.1201 23.59L22.2101 23.48L22.3501 23.76Z" fill="white"/>
<path d="M22.02 23.76L22.25 23.59L22.16 23.48L22.02 23.76Z" fill="white"/>
<path d="M22.02 23.76L22.11 23.49L22.24 23.53L22.02 23.76Z" fill="white"/>
<path d="M30.6598 15.72L30.5298 16.12L30.7298 16.19L30.6598 15.72Z" fill="white"/>
<path d="M30.6601 15.72L30.7801 16.12L30.5801 16.19L30.6601 15.72Z" fill="white"/>
<path d="M31.0599 16.02H30.6299V16.23L31.0599 16.02Z" fill="white"/>
<path d="M31.0598 16.02L30.7098 16.26L30.5898 16.09L31.0598 16.02Z" fill="white"/>
<path d="M30.25 16.02L30.6 16.26L30.72 16.09L30.25 16.02Z" fill="white"/>
<path d="M30.25 16.02H30.68V16.23L30.25 16.02Z" fill="white"/>
<path d="M30.8998 16.4901L30.7698 16.0901L30.5698 16.1501L30.8998 16.4901Z" fill="white"/>
<path d="M30.9001 16.4901L30.5601 16.2401L30.6901 16.0701L30.9001 16.4901Z" fill="white"/>
<path d="M30.4102 16.4901L30.7502 16.2401L30.6202 16.0701L30.4102 16.4901Z" fill="white"/>
<path d="M30.4102 16.4901L30.5402 16.0901L30.7402 16.1501L30.4102 16.4901Z" fill="white"/>
<path d="M34.5001 22.24L34.3701 22.64L34.5701 22.7L34.5001 22.24Z" fill="white"/>
<path d="M34.5002 22.24L34.6302 22.64L34.4302 22.7L34.5002 22.24Z" fill="white"/>
<path d="M34.9 22.53H34.48V22.74L34.9 22.53Z" fill="white"/>
<path d="M34.8999 22.53L34.5599 22.77L34.4399 22.61L34.8999 22.53Z" fill="white"/>
<path d="M34.1001 22.53L34.4401 22.77L34.5601 22.61L34.1001 22.53Z" fill="white"/>
<path d="M34.1001 22.53H34.5201V22.74L34.1001 22.53Z" fill="white"/>
<path d="M34.7499 23.0001L34.6199 22.6001L34.4199 22.6601L34.7499 23.0001Z" fill="white"/>
<path d="M34.7502 23.0001L34.4102 22.7501L34.5302 22.5801L34.7502 23.0001Z" fill="white"/>
<path d="M34.25 23.0001L34.59 22.7501L34.47 22.5801L34.25 23.0001Z" fill="white"/>
<path d="M34.25 23.0001L34.38 22.6001L34.58 22.6601L34.25 23.0001Z" fill="white"/>
<path d="M35.8698 22.47L35.7798 22.74L35.9098 22.78L35.8698 22.47Z" fill="white"/>
<path d="M35.8698 22.47L35.9498 22.74L35.8198 22.78L35.8698 22.47Z" fill="white"/>
<path d="M36.1301 22.6599H35.8501V22.7999L36.1301 22.6599Z" fill="white"/>
<path d="M36.1298 22.6599L35.9098 22.8299L35.8198 22.7199L36.1298 22.6599Z" fill="white"/>
<path d="M35.6001 22.6599L35.8301 22.8299L35.9101 22.7199L35.6001 22.6599Z" fill="white"/>
<path d="M35.6001 22.6599H35.8801V22.7999L35.6001 22.6599Z" fill="white"/>
<path d="M36.0301 22.98L35.9501 22.71L35.8101 22.75L36.0301 22.98Z" fill="white"/>
<path d="M36.0301 22.9799L35.8101 22.8099L35.8901 22.7L36.0301 22.9799Z" fill="white"/>
<path d="M35.7002 22.9799L35.9302 22.8099L35.8502 22.7L35.7002 22.9799Z" fill="white"/>
<path d="M35.7002 22.98L35.7902 22.71L35.9202 22.75L35.7002 22.98Z" fill="white"/>
<path d="M34.9 23.1799L34.79 23.5099L34.96 23.5699L34.9 23.1799Z" fill="white"/>
<path d="M34.8998 23.1799L35.0098 23.5099L34.8398 23.5699L34.8998 23.1799Z" fill="white"/>
<path d="M35.2399 23.4199H34.8799V23.5899L35.2399 23.4199Z" fill="white"/>
<path d="M35.2401 23.4199L34.9501 23.6299L34.8501 23.4799L35.2401 23.4199Z" fill="white"/>
<path d="M34.5698 23.4199L34.8498 23.6299L34.9598 23.4799L34.5698 23.4199Z" fill="white"/>
<path d="M34.5698 23.4199H34.9198V23.5899L34.5698 23.4199Z" fill="white"/>
<path d="M35.1101 23.81L35.0001 23.48L34.8301 23.53L35.1101 23.81Z" fill="white"/>
<path d="M35.1101 23.81L34.8301 23.61L34.9301 23.46L35.1101 23.81Z" fill="white"/>
<path d="M34.7002 23.81L34.9802 23.61L34.8802 23.46L34.7002 23.81Z" fill="white"/>
<path d="M34.7002 23.81L34.8102 23.48L34.9702 23.53L34.7002 23.81Z" fill="white"/>
<path d="M32.5299 25.24L32.4199 25.57L32.5899 25.63L32.5299 25.24Z" fill="white"/>
<path d="M32.5302 25.24L32.6402 25.57L32.4702 25.63L32.5302 25.24Z" fill="white"/>
<path d="M32.8698 25.48H32.5098V25.66L32.8698 25.48Z" fill="white"/>
<path d="M32.87 25.48L32.58 25.69L32.48 25.55L32.87 25.48Z" fill="white"/>
<path d="M32.2002 25.48L32.4802 25.69L32.5802 25.55L32.2002 25.48Z" fill="white"/>
<path d="M32.2002 25.48H32.5502V25.66L32.2002 25.48Z" fill="white"/>
<path d="M32.74 25.88L32.63 25.54L32.46 25.6L32.74 25.88Z" fill="white"/>
<path d="M32.7402 25.88L32.4502 25.67L32.5602 25.53L32.7402 25.88Z" fill="white"/>
<path d="M32.3301 25.88L32.6101 25.67L32.5101 25.53L32.3301 25.88Z" fill="white"/>
<path d="M32.3301 25.88L32.4301 25.54L32.6001 25.6L32.3301 25.88Z" fill="white"/>
<path d="M32.5202 26.3L32.4302 26.57L32.5602 26.6101L32.5202 26.3Z" fill="white"/>
<path d="M32.5202 26.3L32.6002 26.57L32.4702 26.6101L32.5202 26.3Z" fill="white"/>
<path d="M32.78 26.5H32.5V26.64L32.78 26.5Z" fill="white"/>
<path d="M32.7802 26.5L32.5602 26.66L32.4702 26.55L32.7802 26.5Z" fill="white"/>
<path d="M32.25 26.5L32.48 26.66L32.56 26.55L32.25 26.5Z" fill="white"/>
<path d="M32.25 26.5H32.53V26.64L32.25 26.5Z" fill="white"/>
<path d="M32.68 26.81L32.6 26.54L32.46 26.59L32.68 26.81Z" fill="white"/>
<path d="M32.68 26.81L32.46 26.65L32.54 26.53L32.68 26.81Z" fill="white"/>
<path d="M32.3501 26.81L32.5801 26.65L32.5001 26.53L32.3501 26.81Z" fill="white"/>
<path d="M32.3501 26.81L32.4401 26.54L32.5701 26.59L32.3501 26.81Z" fill="white"/>
<path d="M33.5099 24.53L33.4199 24.8L33.5599 24.85L33.5099 24.53Z" fill="white"/>
<path d="M33.51 24.53L33.6 24.8L33.46 24.85L33.51 24.53Z" fill="white"/>
<path d="M33.7802 24.73H33.4902V24.87L33.7802 24.73Z" fill="white"/>
<path d="M33.7802 24.73L33.5502 24.89L33.4702 24.78L33.7802 24.73Z" fill="white"/>
<path d="M33.2402 24.73L33.4702 24.89L33.5502 24.78L33.2402 24.73Z" fill="white"/>
<path d="M33.2402 24.73H33.5202V24.87L33.2402 24.73Z" fill="white"/>
<path d="M33.6702 25.04L33.5902 24.77L33.4502 24.82L33.6702 25.04Z" fill="white"/>
<path d="M33.6702 25.04L33.4502 24.88L33.5302 24.76L33.6702 25.04Z" fill="white"/>
<path d="M33.3398 25.04L33.5698 24.88L33.4898 24.76L33.3398 25.04Z" fill="white"/>
<path d="M33.3398 25.04L33.4298 24.77L33.5598 24.82L33.3398 25.04Z" fill="white"/>
<path d="M34.2999 23.97L34.1899 24.3L34.3599 24.36L34.2999 23.97Z" fill="white"/>
<path d="M34.3002 23.97L34.4102 24.3L34.2402 24.36L34.3002 23.97Z" fill="white"/>
<path d="M34.6298 24.21H34.2798V24.39L34.6298 24.21Z" fill="white"/>
<path d="M34.63 24.21L34.35 24.42L34.25 24.28L34.63 24.21Z" fill="white"/>
<path d="M33.9702 24.21L34.2502 24.42L34.3502 24.28L33.9702 24.21Z" fill="white"/>
<path d="M33.9702 24.21H34.3202V24.39L33.9702 24.21Z" fill="white"/>
<path d="M34.51 24.6L34.4 24.27L34.23 24.32L34.51 24.6Z" fill="white"/>
<path d="M34.5102 24.6L34.2202 24.4L34.3302 24.25L34.5102 24.6Z" fill="white"/>
<path d="M34.0898 24.6L34.3798 24.4L34.2698 24.25L34.0898 24.6Z" fill="white"/>
<path d="M34.0898 24.6L34.1998 24.27L34.3698 24.32L34.0898 24.6Z" fill="white"/>
<path d="M32.4899 24.3401L32.3999 24.6101L32.5399 24.6601L32.4899 24.3401Z" fill="white"/>
<path d="M32.4899 24.3401L32.5799 24.6101L32.4399 24.6601L32.4899 24.3401Z" fill="white"/>
<path d="M32.76 24.54H32.48V24.68L32.76 24.54Z" fill="white"/>
<path d="M32.7602 24.54L32.5302 24.71L32.4502 24.59L32.7602 24.54Z" fill="white"/>
<path d="M32.2202 24.54L32.4502 24.71L32.5302 24.59L32.2202 24.54Z" fill="white"/>
<path d="M32.2202 24.54H32.5102V24.68L32.2202 24.54Z" fill="white"/>
<path d="M32.6599 24.8501L32.5699 24.5901L32.4399 24.6301L32.6599 24.8501Z" fill="white"/>
<path d="M32.6602 24.8501L32.4302 24.6901L32.5102 24.5801L32.6602 24.8501Z" fill="white"/>
<path d="M32.3301 24.8501L32.5501 24.6901L32.4701 24.5801L32.3301 24.8501Z" fill="white"/>
<path d="M32.3301 24.8501L32.4101 24.5901L32.5501 24.6301L32.3301 24.8501Z" fill="white"/>
<path d="M23.8502 19.25L23.7402 19.58L23.9102 19.64L23.8502 19.25Z" fill="white"/>
<path d="M23.85 19.25L23.96 19.58L23.79 19.64L23.85 19.25Z" fill="white"/>
<path d="M24.1801 19.49H23.8301V19.67L24.1801 19.49Z" fill="white"/>
<path d="M24.18 19.49L23.9 19.7L23.79 19.56L24.18 19.49Z" fill="white"/>
<path d="M23.5098 19.49L23.7998 19.7L23.8998 19.56L23.5098 19.49Z" fill="white"/>
<path d="M23.5098 19.49H23.8698V19.67L23.5098 19.49Z" fill="white"/>
<path d="M24.0498 19.89L23.9498 19.55L23.7798 19.6101L24.0498 19.89Z" fill="white"/>
<path d="M24.05 19.89L23.77 19.68L23.87 19.54L24.05 19.89Z" fill="white"/>
<path d="M23.6401 19.89L23.9301 19.68L23.8201 19.54L23.6401 19.89Z" fill="white"/>
<path d="M23.6401 19.89L23.7501 19.55L23.9201 19.6101L23.6401 19.89Z" fill="white"/>
<path d="M30.2799 18.4199L30.1899 18.6899L30.3299 18.7299L30.2799 18.4199Z" fill="white"/>
<path d="M30.28 18.4199L30.37 18.6899L30.23 18.7299L30.28 18.4199Z" fill="white"/>
<path d="M30.55 18.6201H30.27V18.7601L30.55 18.6201Z" fill="white"/>
<path d="M30.5502 18.6201L30.3202 18.7801L30.2402 18.6701L30.5502 18.6201Z" fill="white"/>
<path d="M30.0098 18.6201L30.2398 18.7801L30.3198 18.6701L30.0098 18.6201Z" fill="white"/>
<path d="M30.0098 18.6201H30.2898V18.7601L30.0098 18.6201Z" fill="white"/>
<path d="M30.44 18.9299L30.36 18.6699L30.23 18.7099L30.44 18.9299Z" fill="white"/>
<path d="M30.4402 18.9299L30.2202 18.7699L30.3002 18.6499L30.4402 18.9299Z" fill="white"/>
<path d="M30.1201 18.9299L30.3401 18.7699L30.2601 18.6499L30.1201 18.9299Z" fill="white"/>
<path d="M30.1201 18.9299L30.2001 18.6699L30.3401 18.7099L30.1201 18.9299Z" fill="white"/>
<path d="M27.6002 23.2L27.4702 23.6L27.6702 23.67L27.6002 23.2Z" fill="white"/>
<path d="M27.5998 23.2L27.7298 23.6L27.5298 23.67L27.5998 23.2Z" fill="white"/>
<path d="M28.0001 23.49H27.5801V23.7L28.0001 23.49Z" fill="white"/>
<path d="M28 23.49L27.66 23.74L27.54 23.57L28 23.49Z" fill="white"/>
<path d="M27.2002 23.49L27.5402 23.74L27.6602 23.57L27.2002 23.49Z" fill="white"/>
<path d="M27.2002 23.49H27.6202V23.7L27.2002 23.49Z" fill="white"/>
<path d="M27.85 23.9601L27.72 23.5601L27.52 23.6301L27.85 23.9601Z" fill="white"/>
<path d="M27.8498 23.96L27.5098 23.72L27.6298 23.54L27.8498 23.96Z" fill="white"/>
<path d="M27.3501 23.96L27.6901 23.72L27.5701 23.54L27.3501 23.96Z" fill="white"/>
<path d="M27.3501 23.9601L27.4801 23.5601L27.6801 23.6301L27.3501 23.9601Z" fill="white"/>
<path d="M28.7399 21.3101L28.6299 21.6501L28.7999 21.7001L28.7399 21.3101Z" fill="white"/>
<path d="M28.7402 21.3101L28.8502 21.6501L28.6802 21.7001L28.7402 21.3101Z" fill="white"/>
<path d="M29.0702 21.5601H28.7202V21.7301L29.0702 21.5601Z" fill="white"/>
<path d="M29.0702 21.5601L28.7902 21.7601L28.6802 21.6201L29.0702 21.5601Z" fill="white"/>
<path d="M28.4102 21.5601L28.6902 21.7601L28.7902 21.6201L28.4102 21.5601Z" fill="white"/>
<path d="M28.4102 21.5601H28.7602V21.7301L28.4102 21.5601Z" fill="white"/>
<path d="M28.9499 21.9501L28.8399 21.6201L28.6699 21.6701L28.9499 21.9501Z" fill="white"/>
<path d="M28.9502 21.9501L28.6602 21.7401L28.7602 21.6001L28.9502 21.9501Z" fill="white"/>
<path d="M28.5298 21.9501L28.8198 21.7401L28.7098 21.6001L28.5298 21.9501Z" fill="white"/>
<path d="M28.5298 21.9501L28.6398 21.6201L28.8098 21.6701L28.5298 21.9501Z" fill="white"/>
<path d="M27.6002 20.4299L27.4902 20.7599L27.6602 20.8199L27.6002 20.4299Z" fill="white"/>
<path d="M27.6 20.4299L27.71 20.7599L27.54 20.8199L27.6 20.4299Z" fill="white"/>
<path d="M27.9301 20.6699H27.5801V20.8499L27.9301 20.6699Z" fill="white"/>
<path d="M27.9298 20.6699L27.6498 20.8799L27.5498 20.7399L27.9298 20.6699Z" fill="white"/>
<path d="M27.27 20.6699L27.55 20.8799L27.65 20.7399L27.27 20.6699Z" fill="white"/>
<path d="M27.27 20.6699H27.62V20.8499L27.27 20.6699Z" fill="white"/>
<path d="M27.8098 21.07L27.6998 20.73L27.5298 20.79L27.8098 21.07Z" fill="white"/>
<path d="M27.81 21.07L27.52 20.86L27.63 20.72L27.81 21.07Z" fill="white"/>
<path d="M27.3901 21.07L27.6801 20.86L27.5701 20.72L27.3901 21.07Z" fill="white"/>
<path d="M27.3901 21.07L27.5001 20.73L27.6701 20.79L27.3901 21.07Z" fill="white"/>
<path d="M26.61 21.3799L26.52 21.6499L26.66 21.6999L26.61 21.3799Z" fill="white"/>
<path d="M26.6101 21.3799L26.7001 21.6499L26.5601 21.6999L26.6101 21.3799Z" fill="white"/>
<path d="M26.8798 21.5801H26.5898V21.7201L26.8798 21.5801Z" fill="white"/>
<path d="M26.8801 21.5801L26.6501 21.7401L26.5601 21.6301L26.8801 21.5801Z" fill="white"/>
<path d="M26.3398 21.5801L26.5698 21.7401L26.6498 21.6301L26.3398 21.5801Z" fill="white"/>
<path d="M26.3398 21.5801H26.6198V21.7201L26.3398 21.5801Z" fill="white"/>
<path d="M26.7698 21.8899L26.6898 21.6299L26.5498 21.6699L26.7698 21.8899Z" fill="white"/>
<path d="M26.7698 21.8901L26.5498 21.7301L26.6298 21.6101L26.7698 21.8901Z" fill="white"/>
<path d="M26.4399 21.8901L26.6699 21.7301L26.5899 21.6101L26.4399 21.8901Z" fill="white"/>
<path d="M26.4399 21.8899L26.5299 21.6299L26.6599 21.6699L26.4399 21.8899Z" fill="white"/>
<path d="M27.1 22.1499L27.04 22.3399L27.14 22.3699L27.1 22.1499Z" fill="white"/>
<path d="M27.0998 22.1499L27.1698 22.3399L27.0698 22.3699L27.0998 22.1499Z" fill="white"/>
<path d="M27.2898 22.29H27.0898V22.39L27.2898 22.29Z" fill="white"/>
<path d="M27.2898 22.29L27.1298 22.4L27.0698 22.32L27.2898 22.29Z" fill="white"/>
<path d="M26.9102 22.29L27.0802 22.4L27.1302 22.32L26.9102 22.29Z" fill="white"/>
<path d="M26.9102 22.29H27.1102V22.39L26.9102 22.29Z" fill="white"/>
<path d="M27.2201 22.5101L27.1601 22.3201L27.0601 22.3501L27.2201 22.5101Z" fill="white"/>
<path d="M27.2201 22.5101L27.0601 22.3901L27.1201 22.3101L27.2201 22.5101Z" fill="white"/>
<path d="M26.9902 22.5101L27.1502 22.3901L27.0902 22.3101L26.9902 22.5101Z" fill="white"/>
<path d="M26.9902 22.5101L27.0502 22.3201L27.1402 22.3501L26.9902 22.5101Z" fill="white"/>
<path d="M30.5499 25.48L30.4399 25.82L30.6099 25.87L30.5499 25.48Z" fill="white"/>
<path d="M30.5502 25.48L30.6602 25.82L30.4902 25.87L30.5502 25.48Z" fill="white"/>
<path d="M30.8798 25.72H30.5298V25.9L30.8798 25.72Z" fill="white"/>
<path d="M30.8802 25.72L30.6002 25.93L30.4902 25.79L30.8802 25.72Z" fill="white"/>
<path d="M30.21 25.72L30.5 25.93L30.6 25.79L30.21 25.72Z" fill="white"/>
<path d="M30.21 25.72H30.57V25.9L30.21 25.72Z" fill="white"/>
<path d="M30.75 26.12L30.65 25.78L30.48 25.84L30.75 26.12Z" fill="white"/>
<path d="M30.7502 26.12L30.4702 25.91L30.5702 25.77L30.7502 26.12Z" fill="white"/>
<path d="M30.3398 26.12L30.6298 25.91L30.5198 25.77L30.3398 26.12Z" fill="white"/>
<path d="M30.3398 26.12L30.4498 25.78L30.6198 25.84L30.3398 26.12Z" fill="white"/>
<path d="M31.3898 24.6799L31.2998 24.9499L31.4398 24.9899L31.3898 24.6799Z" fill="white"/>
<path d="M31.3901 24.6799L31.4801 24.9499L31.3501 24.9899L31.3901 24.6799Z" fill="white"/>
<path d="M31.6599 24.8701H31.3799V25.0201L31.6599 24.8701Z" fill="white"/>
<path d="M31.6601 24.8701L31.4301 25.0401L31.3501 24.9301L31.6601 24.8701Z" fill="white"/>
<path d="M31.1201 24.8701L31.3501 25.0401L31.4401 24.9301L31.1201 24.8701Z" fill="white"/>
<path d="M31.1201 24.8701H31.4101V25.0201L31.1201 24.8701Z" fill="white"/>
<path d="M31.5598 25.1899L31.4698 24.9199L31.3398 24.9699L31.5598 25.1899Z" fill="white"/>
<path d="M31.5601 25.1899L31.3301 25.0299L31.4101 24.9099L31.5601 25.1899Z" fill="white"/>
<path d="M31.23 25.1899L31.45 25.0299L31.37 24.9099L31.23 25.1899Z" fill="white"/>
<path d="M31.23 25.1899L31.31 24.9199L31.45 24.9699L31.23 25.1899Z" fill="white"/>
<path d="M29.7702 24.4399L29.6802 24.7099L29.8202 24.7499L29.7702 24.4399Z" fill="white"/>
<path d="M29.7702 24.4399L29.8602 24.7099L29.7202 24.7499L29.7702 24.4399Z" fill="white"/>
<path d="M30.0398 24.6399H29.7598V24.7699L30.0398 24.6399Z" fill="white"/>
<path d="M30.04 24.6399L29.81 24.7999L29.73 24.6799L30.04 24.6399Z" fill="white"/>
<path d="M29.5 24.6399L29.73 24.7999L29.81 24.6799L29.5 24.6399Z" fill="white"/>
<path d="M29.5 24.6399H29.78V24.7699L29.5 24.6399Z" fill="white"/>
<path d="M29.93 24.9499L29.85 24.6799L29.71 24.7299L29.93 24.9499Z" fill="white"/>
<path d="M29.93 24.9499L29.71 24.7799L29.79 24.6699L29.93 24.9499Z" fill="white"/>
<path d="M29.6099 24.9499L29.8299 24.7799L29.7499 24.6699L29.6099 24.9499Z" fill="white"/>
<path d="M29.6099 24.9499L29.6899 24.6799L29.8199 24.7299L29.6099 24.9499Z" fill="white"/>
<path d="M23.65 24L23.52 24.41L23.72 24.47L23.65 24Z" fill="white"/>
<path d="M23.6501 24L23.7801 24.41L23.5801 24.47L23.6501 24Z" fill="white"/>
<path d="M24.0499 24.3H23.6299V24.51L24.0499 24.3Z" fill="white"/>
<path d="M24.0501 24.3L23.7101 24.5401L23.5801 24.3701L24.0501 24.3Z" fill="white"/>
<path d="M23.25 24.3L23.59 24.5401L23.71 24.3701L23.25 24.3Z" fill="white"/>
<path d="M23.25 24.3H23.67V24.51L23.25 24.3Z" fill="white"/>
<path d="M23.9001 24.7701L23.7601 24.3601L23.5601 24.4301L23.9001 24.7701Z" fill="white"/>
<path d="M23.8998 24.7701L23.5498 24.5201L23.6798 24.3501L23.8998 24.7701Z" fill="white"/>
<path d="M23.3999 24.7701L23.7399 24.5201L23.6199 24.3501L23.3999 24.7701Z" fill="white"/>
<path d="M23.3999 24.7701L23.5299 24.3601L23.7299 24.4301L23.3999 24.7701Z" fill="white"/>
<path d="M27.6001 26.76L27.5601 26.9L27.6201 26.92L27.6001 26.76Z" fill="white"/>
<path d="M27.6001 26.76L27.6401 26.9L27.5801 26.92L27.6001 26.76Z" fill="white"/>
<path d="M27.7298 26.8601H27.5898V26.9301L27.7298 26.8601Z" fill="white"/>
<path d="M27.7301 26.8601L27.6201 26.9401L27.5801 26.8901L27.7301 26.8601Z" fill="white"/>
<path d="M27.4702 26.8601L27.5802 26.9401L27.6202 26.8901L27.4702 26.8601Z" fill="white"/>
<path d="M27.4702 26.8601H27.6102V26.9301L27.4702 26.8601Z" fill="white"/>
<path d="M27.6798 27.0199L27.6398 26.8899L27.5698 26.9099L27.6798 27.0199Z" fill="white"/>
<path d="M27.6798 27.0199L27.5698 26.9399L27.6098 26.8799L27.6798 27.0199Z" fill="white"/>
<path d="M27.52 27.0199L27.63 26.9399L27.59 26.8799L27.52 27.0199Z" fill="white"/>
<path d="M27.52 27.0199L27.56 26.8899L27.63 26.9099L27.52 27.0199Z" fill="white"/>
</g>
<defs>
<clipPath id="clip0_55_188">
<rect width="55.2" height="38.4" fill="white"/>
</clipPath>
</defs>
</svg>
