<svg width="42" height="42" viewBox="0 0 42 42" fill="none" xmlns="http://www.w3.org/2000/svg">
<g clip-path="url(#clip0_43_113)">
<path d="M21 0C9.40275 0 0 9.40275 0 21C0 32.5972 9.40275 42 21 42C32.5972 42 42 32.5972 42 21C42 9.40275 32.5972 0 21 0ZM26.25 14H23.8875C22.946 14 22.75 14.3867 22.75 15.3615V17.5H26.25L25.8843 21H22.75V33.25H17.5V21H14V17.5H17.5V13.461C17.5 10.3652 19.1293 8.75 22.8008 8.75H26.25V14Z" fill="url(#paint0_radial_43_113)"/>
</g>
<defs>
<radialGradient id="paint0_radial_43_113" cx="0" cy="0" r="1" gradientUnits="userSpaceOnUse" gradientTransform="translate(21 21) scale(21 159.689)">
<stop stop-color="#3F37C9"/>
<stop offset="1" stop-color="#4361EE"/>
</radialGradient>
<clipPath id="clip0_43_113">
<rect width="42" height="42" fill="white"/>
</clipPath>
</defs>
</svg>
