<svg width="331" height="61" viewBox="0 0 331 61" fill="none" xmlns="http://www.w3.org/2000/svg">
<g clip-path="url(#clip0_55_131)">
<path d="M3.22021 22.114C6.73451 17.689 11.2278 14.1414 16.3458 11.7508C21.4639 9.36027 27.0669 8.1921 32.713 8.33841C33.6901 -10.5852 6.26738 13.5542 3.22021 22.114V22.114Z" fill="#575756"/>
<path d="M59.1195 20.6187C59.5242 21.6893 46.6491 29.1162 36.2702 30.3706C36.3772 20.3672 40.849 3.06918 31.144 0.203422C50.1759 -2.18947 60.4514 17.421 59.1195 20.6204V20.6187Z" fill="#575756"/>
<path d="M16.3787 59.9223C-0.542102 49.9296 -7.65275 30.849 11.2525 17.2357C4.27738 34.1394 7.25857 48.6413 16.3787 59.9223Z" fill="#575756"/>
<path d="M11.0171 38.2202C28.3836 40.5559 49.7084 37.3172 60.2585 24.7264C61.3889 53.8284 12.4168 82.3093 11.0171 38.2202Z" fill="#008AD1"/>
<path d="M88.7405 13.738C90.6394 13.7221 92.5211 14.0987 94.2678 14.8444C97.6494 16.2902 100.343 18.9865 101.787 22.371C102.532 24.1191 102.908 26.0025 102.892 27.9029V39.2854C102.908 41.1858 102.532 43.0692 101.787 44.8173C101.067 46.5003 100.039 48.0337 98.7557 49.3389C97.4743 50.6441 95.9504 51.6861 94.2696 52.4062C92.5229 53.152 90.6412 53.5286 88.7423 53.5126H85.8983V47.8847H88.7405C90.546 47.9155 92.3116 47.3511 93.765 46.2787C95.1873 45.2458 96.2574 43.7997 96.83 42.137H88.7405C86.852 42.1468 84.9813 41.7703 83.2434 41.0306C79.812 39.5776 77.0812 36.8439 75.63 33.4094C74.8999 31.6618 74.5239 29.7863 74.5239 27.892C74.5239 25.9977 74.8999 24.1224 75.63 22.3747C76.35 20.6928 77.3911 19.1678 78.695 17.8852C80.0073 16.5963 81.5511 15.5669 83.2452 14.8516C84.9832 14.112 86.8537 13.7355 88.7423 13.7452L88.7405 13.738ZM80.1464 27.9046C80.1402 29.0358 80.3583 30.157 80.788 31.2033C81.2177 32.2496 81.8506 33.2001 82.6498 34C83.4491 34.7999 84.3989 35.4332 85.4444 35.8632C86.4899 36.2933 87.6102 36.5115 88.7405 36.5054H97.3346V27.9046C97.3425 26.764 97.1168 25.6336 96.6713 24.5837C96.2403 23.5679 95.618 22.6448 94.8384 21.8644C93.2146 20.2581 91.0236 19.3572 88.7405 19.3572C86.4574 19.3572 84.2663 20.2581 82.6426 21.8644C81.8631 22.6449 81.2408 23.568 80.8097 24.5837C80.364 25.6336 80.1383 26.7639 80.1464 27.9046V27.9046ZM110.402 2.35547H116.021V42.1335H110.397V2.35547H110.402ZM123.787 28.0312C123.771 26.1307 124.147 24.2475 124.893 22.4995C126.337 19.1042 129.045 16.4047 132.444 14.9729C134.19 14.243 136.064 13.8672 137.957 13.8672C139.85 13.8672 141.723 14.243 143.47 14.9729C145.151 15.694 146.684 16.7229 147.988 18.0065C149.292 19.2891 150.333 20.8142 151.053 22.4961C151.783 24.2438 152.159 26.1191 152.159 28.0133C152.159 29.9075 151.783 31.783 151.053 33.5308C149.601 36.9544 146.885 39.6847 143.47 41.152C141.724 41.8823 139.85 42.2583 137.957 42.2583C136.064 42.2583 134.19 41.8823 132.444 41.152C130.751 40.437 129.215 39.3946 127.926 38.0846C126.638 36.7713 125.609 35.2263 124.895 33.5308C124.155 31.7916 123.779 29.9195 123.789 28.0294L123.787 28.0312ZM129.349 28.0312C129.349 30.3123 130.254 32.5 131.866 34.113C133.477 35.726 135.663 36.6321 137.943 36.6321C140.222 36.6321 142.408 35.726 144.02 34.113C145.631 32.5 146.537 30.3123 146.537 28.0312C146.545 26.8905 146.319 25.7603 145.874 24.7105C145.443 23.6946 144.82 22.7713 144.041 21.9909C142.417 20.3847 140.226 19.484 137.943 19.484C135.66 19.484 133.469 20.3847 131.845 21.9909C131.065 22.7713 130.443 23.6947 130.012 24.7105C129.566 25.7603 129.34 26.8905 129.349 28.0312V28.0312ZM173.949 13.8666C175.848 13.8507 177.729 14.2274 179.476 14.9729C182.858 16.4189 185.551 19.1151 186.995 22.4995C187.725 24.2473 188.101 26.1228 188.101 28.017C188.101 29.9113 187.725 31.7867 186.995 33.5345C186.28 35.23 185.252 36.7748 183.964 38.0881C182.682 39.3927 181.158 40.4348 179.478 41.1557C177.732 41.886 175.858 42.262 173.965 42.262C172.072 42.262 170.198 41.886 168.452 41.1557C165.02 39.703 162.288 36.9693 160.837 33.5345C160.097 31.7952 159.721 29.9231 159.731 28.0331V2.48398H165.355V13.8683L173.949 13.8666ZM173.949 36.6321C175.089 36.6404 176.218 36.4143 177.267 35.9682C178.282 35.537 179.205 34.9142 179.984 34.1339C181.591 32.5111 182.489 30.316 182.48 28.0312C182.489 26.8905 182.263 25.7603 181.817 24.7105C180.948 22.6596 179.316 21.0269 177.267 20.1566C176.218 19.7103 175.089 19.4845 173.949 19.4929H165.355V28.0312C165.349 29.1624 165.567 30.2836 165.996 31.3299C166.426 32.3762 167.059 33.3268 167.858 34.1267C168.657 34.9266 169.607 35.5599 170.653 35.99C171.698 36.42 172.818 36.6383 173.949 36.6321V36.6321ZM209.639 13.74C211.538 13.7241 213.42 14.1007 215.167 14.8463C218.549 16.291 221.244 18.9876 222.687 22.373C223.433 24.121 223.809 26.0042 223.793 27.9046V42.1335H209.638C207.749 42.1435 205.878 41.767 204.141 41.0272C200.709 39.574 197.977 36.8404 196.525 33.406C195.796 31.6581 195.42 29.7827 195.42 27.8885C195.42 25.9943 195.796 24.1189 196.525 22.371C197.246 20.6893 198.287 19.1643 199.59 17.8815C200.902 16.5923 202.446 15.5632 204.141 14.8481C205.878 14.1083 207.749 13.7318 209.638 13.7417L209.639 13.74ZM218.171 36.5071V27.9064C218.179 26.7657 217.954 25.6355 217.508 24.5856C216.638 22.5346 215.007 20.9018 212.958 20.0318C211.908 19.5857 210.779 19.3597 209.639 19.3679C207.95 19.3557 206.296 19.8448 204.884 20.7735C203.473 21.7022 202.368 23.0289 201.71 24.5856C201.264 25.6354 201.039 26.7657 201.047 27.9064C201.041 29.0375 201.259 30.1585 201.689 31.2046C202.119 32.2508 202.752 33.2014 203.551 34.0013C204.35 34.8011 205.3 35.4344 206.345 35.8645C207.391 36.2947 208.511 36.513 209.641 36.5071H218.171ZM231.176 2.35721H236.8V42.1352H231.176V2.35721Z" fill="#575756"/>
<path d="M267.872 13.6686V19.2967H250.756C250.381 19.2917 250.009 19.3617 249.662 19.503C249.314 19.6442 248.999 19.8539 248.734 20.1192C248.469 20.3845 248.26 20.7002 248.119 21.0478C247.978 21.3954 247.908 21.7677 247.913 22.1428C247.907 22.5228 247.975 22.9005 248.116 23.2535C248.257 23.6064 248.467 23.9276 248.734 24.1984C248.992 24.4743 249.306 24.6927 249.654 24.8396C250.002 24.9866 250.378 25.0588 250.756 25.0514H262.129C263.269 25.0432 264.398 25.269 265.448 25.7151C266.457 26.1424 267.378 26.7535 268.165 27.5173C268.948 28.2821 269.572 29.1957 269.998 30.2046C270.436 31.2569 270.662 32.3856 270.662 33.5256C270.662 34.6655 270.436 35.7941 269.998 36.8463C269.128 38.8972 267.497 40.53 265.448 41.4001C264.398 41.8461 263.269 42.072 262.129 42.0638H245.068V36.4394H262.129C262.515 36.4528 262.898 36.3869 263.257 36.2455C263.616 36.1041 263.942 35.8904 264.214 35.6175C264.487 35.3447 264.701 35.0185 264.842 34.6596C264.983 34.3006 265.049 33.9164 265.036 33.5308C265.044 33.1552 264.975 32.7819 264.834 32.4338C264.693 32.0858 264.482 31.7706 264.214 31.5074C263.94 31.2351 263.614 31.0214 263.256 30.8799C262.897 30.7384 262.513 30.672 262.128 30.6847H250.754C249.615 30.6926 248.486 30.4668 247.437 30.021C246.429 29.5944 245.516 28.9707 244.752 28.1865C243.989 27.3991 243.379 26.4772 242.951 25.4672C242.513 24.4152 242.288 23.2867 242.288 22.1471C242.288 21.0075 242.513 19.8793 242.951 18.8273C243.799 16.7986 245.41 15.1856 247.437 14.3377C248.486 13.8918 249.614 13.666 250.754 13.674L267.872 13.6686ZM300.794 13.7311V39.2802C300.81 41.1806 300.434 43.0638 299.688 44.8119C298.968 46.4949 297.94 48.0285 296.657 49.3337C295.376 50.639 293.852 51.681 292.171 52.401C290.425 53.1469 288.543 53.5236 286.644 53.5074H283.8V47.8793H286.644C287.784 47.8872 288.913 47.6606 289.962 47.2136C291.515 46.5513 292.839 45.4449 293.766 44.0329C294.694 42.621 295.184 40.9662 295.176 39.2765V39.2125C293.988 40.1414 292.653 40.865 291.226 41.3537C287.937 42.4746 284.351 42.3509 281.147 41.0058C277.715 39.5534 274.984 36.8204 273.532 33.3864C272.793 31.6471 272.416 29.775 272.426 27.885V13.7185H278.05V27.885C278.043 29.0163 278.261 30.1376 278.691 31.184C279.121 32.2304 279.753 33.1811 280.553 33.981C281.352 34.781 282.302 35.4141 283.348 35.8441C284.393 36.274 285.514 36.4922 286.644 36.4858C287.784 36.4935 288.913 36.2677 289.962 35.8221C290.977 35.3907 291.9 34.7678 292.679 33.9876C294.287 32.3648 295.185 30.1699 295.176 27.885V13.7185L300.794 13.7311ZM328.218 13.6686V19.2967H311.102C310.727 19.2917 310.355 19.3617 310.008 19.503C309.66 19.6442 309.345 19.8539 309.08 20.1192C308.815 20.3845 308.606 20.7002 308.465 21.0478C308.324 21.3954 308.254 21.7677 308.259 22.1428C308.252 22.5228 308.322 22.9005 308.462 23.2535C308.603 23.6064 308.813 23.9276 309.08 24.1984C309.338 24.4743 309.652 24.6927 310 24.8396C310.348 24.9866 310.724 25.0588 311.102 25.0514H322.475C323.615 25.0431 324.744 25.269 325.793 25.7151C326.803 26.1427 327.724 26.7538 328.511 27.5173C329.294 28.2823 329.917 29.1958 330.344 30.2046C330.782 31.2569 331.007 32.3856 331.007 33.5256C331.007 34.6655 330.782 35.7941 330.344 36.8463C329.474 38.8972 327.843 40.53 325.793 41.4001C324.744 41.8462 323.615 42.0721 322.475 42.0638H305.414V36.4394H322.475C322.861 36.4528 323.245 36.3869 323.603 36.2455C323.962 36.1041 324.288 35.8904 324.56 35.6175C324.833 35.3447 325.046 35.0185 325.188 34.6596C325.329 34.3006 325.395 33.9164 325.382 33.5308C325.39 33.1552 325.322 32.7819 325.18 32.4338C325.039 32.0858 324.828 31.7706 324.56 31.5074C324.287 31.2351 323.961 31.0214 323.602 30.8799C323.243 30.7384 322.859 30.672 322.474 30.6847H311.098C309.959 30.6926 308.83 30.4668 307.782 30.021C306.773 29.5945 305.86 28.9707 305.096 28.1865C304.333 27.3991 303.723 26.4772 303.295 25.4672C302.858 24.4152 302.632 23.2867 302.632 22.1471C302.632 21.0076 302.858 19.8793 303.295 18.8273C304.143 16.7987 305.755 15.1858 307.782 14.3377C308.83 13.8917 309.959 13.6659 311.098 13.674L328.218 13.6686Z" fill="#008AD1"/>
</g>
<defs>
<clipPath id="clip0_55_131">
<rect width="331" height="61" fill="white"/>
</clipPath>
</defs>
</svg>
