<svg width="42" height="42" viewBox="0 0 42 42" fill="none" xmlns="http://www.w3.org/2000/svg">
<g clip-path="url(#clip0_43_117)">
<path d="M25.9508 11.0285C24.6593 10.969 24.2707 10.9585 21 10.9585C17.7293 10.9585 17.3425 10.9708 16.051 11.0285C12.7277 11.1808 11.1808 12.754 11.0285 16.051C10.9708 17.3425 10.9568 17.7293 10.9568 21C10.9568 24.2707 10.9708 24.6575 11.0285 25.9508C11.1808 29.239 12.7207 30.821 16.051 30.9732C17.3407 31.031 17.7293 31.045 21 31.045C24.2725 31.045 24.6593 31.0327 25.9508 30.9732C29.274 30.8227 30.8192 29.2443 30.9732 25.9508C31.031 24.6593 31.0433 24.2707 31.0433 21C31.0433 17.7293 31.031 17.3425 30.9732 16.051C30.8192 12.7557 29.2705 11.1808 25.9508 11.0285V11.0285ZM21 27.2913C17.5262 27.2913 14.7087 24.4755 14.7087 21C14.7087 17.5262 17.5262 14.7105 21 14.7105C24.4738 14.7105 27.2913 17.5262 27.2913 21C27.2913 24.4738 24.4738 27.2913 21 27.2913ZM27.5398 15.932C26.7278 15.932 26.0698 15.274 26.0698 14.462C26.0698 13.65 26.7278 12.992 27.5398 12.992C28.3518 12.992 29.0097 13.65 29.0097 14.462C29.0097 15.2722 28.3518 15.932 27.5398 15.932V15.932ZM25.0828 21C25.0828 23.2558 23.254 25.0828 21 25.0828C18.746 25.0828 16.9172 23.2558 16.9172 21C16.9172 18.7442 18.746 16.9172 21 16.9172C23.254 16.9172 25.0828 18.7442 25.0828 21ZM21 0C9.40275 0 0 9.40275 0 21C0 32.5972 9.40275 42 21 42C32.5972 42 42 32.5972 42 21C42 9.40275 32.5972 0 21 0ZM33.1765 26.0505C32.9753 30.5042 30.4955 32.9718 26.0523 33.1765C24.745 33.236 24.3268 33.25 21 33.25C17.6732 33.25 17.2568 33.236 15.9495 33.1765C11.4975 32.9718 9.02825 30.5007 8.8235 26.0505C8.764 24.745 8.75 24.3268 8.75 21C8.75 17.6732 8.764 17.2568 8.8235 15.9495C9.02825 11.4975 11.4993 9.02825 15.9495 8.82525C17.2568 8.764 17.6732 8.75 21 8.75C24.3268 8.75 24.745 8.764 26.0523 8.82525C30.506 9.03 32.977 11.5063 33.1765 15.9495C33.236 17.2568 33.25 17.6732 33.25 21C33.25 24.3268 33.236 24.745 33.1765 26.0505Z" fill="url(#paint0_linear_43_117)"/>
</g>
<defs>
<linearGradient id="paint0_linear_43_117" x1="21.1005" y1="-2.19608e-06" x2="21.1005" y2="42" gradientUnits="userSpaceOnUse">
<stop stop-color="#4361EE"/>
<stop offset="1" stop-color="#1810AC"/>
</linearGradient>
<clipPath id="clip0_43_117">
<rect width="42" height="42" fill="white"/>
</clipPath>
</defs>
</svg>
