<svg width="42" height="42" viewBox="0 0 42 42" fill="none" xmlns="http://www.w3.org/2000/svg">
<g clip-path="url(#clip0_43_115)">
<path d="M21 0C9.40275 0 0 9.40275 0 21C0 32.5972 9.40275 42 21 42C32.5972 42 42 32.5972 42 21C42 9.40275 32.5972 0 21 0ZM17.5 28H14V17.5H17.5V28ZM15.75 15.9408C14.6878 15.9408 13.825 15.0727 13.825 14C13.825 12.929 14.686 12.0592 15.75 12.0592C16.814 12.0592 17.675 12.929 17.675 14C17.675 15.0727 16.8122 15.9408 15.75 15.9408ZM29.75 28H26.2535V22.9932C26.2535 19.7015 22.75 19.9797 22.75 22.9932V28H19.25V17.5H22.75V19.4128C24.276 16.5848 29.75 16.3747 29.75 22.1217V28Z" fill="url(#paint0_radial_43_115)"/>
</g>
<defs>
<radialGradient id="paint0_radial_43_115" cx="0" cy="0" r="1" gradientUnits="userSpaceOnUse" gradientTransform="translate(21 21) scale(21 159.689)">
<stop stop-color="#3F37C9"/>
<stop offset="1" stop-color="#4361EE"/>
</radialGradient>
<clipPath id="clip0_43_115">
<rect width="42" height="42" fill="white"/>
</clipPath>
</defs>
</svg>
