<svg width="45" height="47" viewBox="0 0 45 47" fill="none" xmlns="http://www.w3.org/2000/svg">
<g clip-path="url(#clip0_55_143)">
<path fill-rule="evenodd" clip-rule="evenodd" d="M9.00999 37.7897L18.2274 35.0282L16.599 38.0116C19.9364 40.8267 23.3737 41.5802 27.1913 39.9546C23.5965 45.6039 18.0315 46.2542 13.3652 43.9592L11.7022 47L9.01383 37.7897H9.00999ZM8.83332 13.5133H12.647V12.5341C12.647 12.5006 12.6604 12.4685 12.6841 12.4448C12.7079 12.4212 12.7401 12.4079 12.7737 12.4079H14.5174C14.551 12.4079 14.5832 12.4212 14.607 12.4448C14.6308 12.4685 14.6441 12.5006 14.6441 12.5341V13.5133H18.4847C18.5183 13.5133 18.5505 13.5266 18.5743 13.5502C18.5981 13.5739 18.6114 13.606 18.6114 13.6395V15.4563C18.6114 15.4727 18.6081 15.4889 18.6017 15.504C18.5953 15.5191 18.5859 15.5328 18.5741 15.5442C18.5623 15.5556 18.5482 15.5646 18.5329 15.5705C18.5175 15.5764 18.5011 15.5792 18.4847 15.5787H17.7703C17.7031 16.0986 17.586 16.6109 17.4208 17.1086C17.2445 17.6369 17.0222 18.1488 16.7564 18.6386C16.5158 19.0712 16.249 19.4889 15.9576 19.8893C15.6811 20.2718 15.3777 20.6543 15.055 21.0368C15.5989 21.6715 16.1936 22.2612 16.8332 22.8001V22.8001C17.5417 23.3936 18.2884 23.9404 19.0684 24.4371C19.0826 24.4457 19.0948 24.457 19.1044 24.4704C19.114 24.4838 19.1208 24.499 19.1244 24.515C19.128 24.5311 19.1283 24.5477 19.1253 24.5639C19.1223 24.5801 19.116 24.5955 19.1069 24.6092L18.2043 26.0168C18.1849 26.0439 18.1561 26.0628 18.1234 26.0699C18.0907 26.077 18.0566 26.0717 18.0277 26.055C17.1921 25.5226 16.3916 24.9375 15.6311 24.3032C14.9427 23.7296 14.3006 23.1029 13.7108 22.429C13.2154 22.8995 12.6931 23.3585 12.1477 23.7983C11.5294 24.2917 10.8842 24.7699 10.2274 25.225C10.2138 25.2346 10.1985 25.2414 10.1822 25.245C10.166 25.2486 10.1492 25.249 10.1327 25.2462C10.1163 25.2433 10.1007 25.2373 10.0866 25.2284C10.0725 25.2195 10.0604 25.208 10.0508 25.1944L9.10216 23.8213C9.09213 23.8082 9.08494 23.7932 9.08104 23.7773C9.07714 23.7613 9.07662 23.7447 9.07951 23.7285C9.0824 23.7123 9.08863 23.6969 9.09782 23.6832C9.10701 23.6696 9.11895 23.658 9.13288 23.6492C9.78194 23.2017 10.4156 22.7312 11.0186 22.2416C11.5524 21.8094 12.0632 21.3619 12.5356 20.8991C12.0748 20.2176 11.6702 19.5 11.3259 18.7533C10.9481 17.9339 10.6361 17.0859 10.3926 16.2174C10.3853 16.1856 10.3903 16.1521 10.4067 16.1237C10.4231 16.0954 10.4496 16.0742 10.4809 16.0645L12.0978 15.6131C12.1137 15.6085 12.1304 15.6071 12.1468 15.6091C12.1632 15.6111 12.1791 15.6163 12.1934 15.6245C12.2078 15.6327 12.2203 15.6438 12.2303 15.6569C12.2402 15.6701 12.2474 15.6851 12.2514 15.7011C12.4467 16.404 12.6931 17.0917 12.9888 17.7589C13.2481 18.3377 13.5457 18.8986 13.8798 19.438C14.0911 19.1741 14.2908 18.914 14.4751 18.6501C14.6595 18.3861 14.8822 18.0228 15.055 17.7015C15.2501 17.3444 15.4158 16.9722 15.5505 16.5885C15.6641 16.2524 15.7526 15.9086 15.8155 15.5596H8.83332C8.81686 15.5601 8.80046 15.5573 8.78511 15.5514C8.76975 15.5455 8.75575 15.5365 8.74392 15.5251C8.7321 15.5137 8.7227 15.5 8.71629 15.4849C8.70987 15.4698 8.70657 15.4536 8.70658 15.4372V13.6395C8.70658 13.606 8.71993 13.5739 8.7437 13.5502C8.76747 13.5266 8.79971 13.5133 8.83332 13.5133V13.5133ZM27.8442 15.1427H40.2799C41.535 15.1477 42.7371 15.6467 43.6242 16.5309C44.5112 17.4151 45.0113 18.6127 45.0154 19.8625V29.834C45.0113 31.0839 44.5112 32.2815 43.6242 33.1657C42.7371 34.0498 41.535 34.5488 40.2799 34.5539H39.8959L39.6424 38.3367C39.6357 38.5195 39.5788 38.697 39.4779 38.85C39.3771 39.0029 39.2361 39.1254 39.0703 39.2043C38.9045 39.2831 38.7202 39.3152 38.5374 39.2971C38.3546 39.279 38.1802 39.2114 38.0332 39.1016L31.9728 34.5577H24.2647C23.0441 34.5531 21.872 34.0811 20.9912 33.2394C20.1104 32.3978 19.5884 31.2511 19.5332 30.0367H14.8515L7.81557 35.5713C7.54603 35.779 7.22162 35.904 6.88193 35.9311C6.54225 35.9582 6.20198 35.8863 5.90265 35.7241C5.60333 35.5618 5.3579 35.3163 5.19633 35.0175C5.03475 34.7187 4.96401 34.3795 4.99275 34.0413L5.29999 30.0061C3.93843 29.8969 2.66084 29.3068 1.69753 28.3423L1.59 28.2275C0.577082 27.1722 0.0081643 25.7708 0 24.3109L0 13.6586C0 12.137 0.606946 10.6777 1.68732 9.60172C2.76769 8.52577 4.23299 7.92131 5.76086 7.92131H22.0795C22.8338 7.9211 23.5808 8.06933 24.2774 8.35749C24.9741 8.64564 25.6067 9.06804 26.1389 9.60042L26.2465 9.71134C27.2582 10.773 27.8243 12.1796 27.8288 13.6433V15.1274L27.8442 15.1427ZM40.0149 9.51245L30.4596 10.7976L32.5373 8.1202C29.6876 4.81934 26.3924 3.53036 22.3867 4.54395C26.8264 -0.481934 32.426 -0.256266 36.6852 2.74243L38.7898 0L39.9842 9.51245H40.0149ZM35.172 26.8085H32.0995L31.5311 28.7209H28.7621C29.6838 26.2845 30.7515 23.3661 31.6771 20.9182C32.0112 20.0385 32.3914 18.5774 33.5973 18.5774C34.8033 18.5774 35.2718 19.9161 35.6213 20.8417L38.5824 28.763H35.7557L35.172 26.797V26.8085ZM34.7073 24.9343L33.6357 21.5761L32.5604 24.9343H34.7073ZM5.76086 9.68457H22.0795C23.1365 9.6886 24.1491 10.1086 24.8966 10.853C25.6441 11.5974 26.0658 12.6059 26.0698 13.6586V24.3109C26.0719 25.3672 25.6527 26.3812 24.9045 27.13C24.1563 27.8787 23.1402 28.301 22.0795 28.304H14.2447L6.73253 34.1829L7.17803 28.304H5.76086C5.23454 28.3045 4.71329 28.2015 4.22703 28.001C3.74077 27.8004 3.29907 27.5061 2.92725 27.1351C2.55544 26.7641 2.26085 26.3237 2.06037 25.839C1.85989 25.3544 1.75747 24.835 1.75898 24.3109V13.6586C1.76203 12.6036 2.185 11.5928 2.93517 10.8478C3.68534 10.1029 4.70149 9.68457 5.76086 9.68457V9.68457Z" fill="white"/>
</g>
<defs>
<clipPath id="clip0_55_143">
<rect width="45" height="47" fill="white"/>
</clipPath>
</defs>
</svg>
