<svg width="56" height="39" viewBox="0 0 56 39" fill="none" xmlns="http://www.w3.org/2000/svg">
<g clip-path="url(#clip0_55_147)">
<path d="M3.03 0H52.16C53.83 0 55.19 1.36 55.19 3.03V35.36C55.19 37.03 53.83 38.39 52.16 38.39H3.03C1.36 38.4 0 37.04 0 35.37V3.03C0 1.36 1.36 0 3.03 0Z" fill="#B22234"/>
<path d="M0.02 2.72998H55.19C55.2 2.82998 55.21 2.92998 55.21 3.03998V5.97998H0V3.02998C0 2.92998 0.01 2.82998 0.02 2.72998ZM55.2 8.66998V11.91H0V8.66998H55.2ZM55.2 14.61V17.85H0V14.61H55.2V14.61ZM55.2 20.55V23.79H0V20.55H55.2V20.55ZM55.2 26.49V29.73H0V26.49H55.2V26.49ZM55.2 32.43V35.36C55.2 35.46 55.19 35.57 55.18 35.67H0.02C0.01 35.58 0 35.47 0 35.37V32.44H55.2V32.43Z" fill="white"/>
<path d="M20.8 0V20.68H0V3.03C0 1.36 1.36 0 3.03 0H20.8Z" fill="#3C3B6E"/>
<path d="M1.2301 2.86011L1.9201 5.01011L0.100098 3.68011H2.3601L0.530098 5.01011L1.2301 2.86011Z" fill="white"/>
<path d="M1.2301 7.02002L1.9201 9.17002L0.100098 7.84002H2.3601L0.530098 9.17002L1.2301 7.02002Z" fill="white"/>
<path d="M1.2301 11.1799L1.9201 13.3299L0.100098 11.9999H2.3601L0.530098 13.3299L1.2301 11.1799Z" fill="white"/>
<path d="M1.2301 15.3401L1.9201 17.4901L0.100098 16.1601H2.3601L0.530098 17.4901L1.2301 15.3401Z" fill="white"/>
<path d="M3.67004 0.780029L4.37004 2.93003L2.54004 1.60003H4.81004L2.97004 2.93003L3.67004 0.780029Z" fill="white"/>
<path d="M3.67004 4.93994L4.37004 7.08994L2.54004 5.75994H4.81004L2.97004 7.08994L3.67004 4.93994Z" fill="white"/>
<path d="M3.67004 9.1001L4.37004 11.2501L2.54004 9.9201H4.81004L2.97004 11.2501L3.67004 9.1001Z" fill="white"/>
<path d="M3.67004 13.26L4.37004 15.41L2.54004 14.08H4.81004L2.97004 15.41L3.67004 13.26Z" fill="white"/>
<path d="M3.67004 17.4199L4.37004 19.5699L2.54004 18.2399H4.81004L2.97004 19.5699L3.67004 17.4199Z" fill="white"/>
<path d="M6.12023 2.86011L6.82023 5.01011L4.99023 3.68011H7.25023L5.42023 5.01011L6.12023 2.86011Z" fill="white"/>
<path d="M6.12023 7.02002L6.82023 9.17002L4.99023 7.84002H7.25023L5.42023 9.17002L6.12023 7.02002Z" fill="white"/>
<path d="M6.12023 11.1799L6.82023 13.3299L4.99023 11.9999H7.25023L5.42023 13.3299L6.12023 11.1799Z" fill="white"/>
<path d="M6.12023 15.3401L6.82023 17.4901L4.99023 16.1601H7.25023L5.42023 17.4901L6.12023 15.3401Z" fill="white"/>
<path d="M8.56994 0.780029L9.25994 2.93003L7.43994 1.60003H9.69994L7.86994 2.93003L8.56994 0.780029Z" fill="white"/>
<path d="M8.56994 4.93994L9.25994 7.08994L7.43994 5.75994H9.69994L7.86994 7.08994L8.56994 4.93994Z" fill="white"/>
<path d="M8.56994 9.1001L9.25994 11.2501L7.43994 9.9201H9.69994L7.86994 11.2501L8.56994 9.1001Z" fill="white"/>
<path d="M8.56994 13.26L9.25994 15.41L7.43994 14.08H9.69994L7.86994 15.41L8.56994 13.26Z" fill="white"/>
<path d="M8.56994 17.4199L9.25994 19.5699L7.43994 18.2399H9.69994L7.86994 19.5699L8.56994 17.4199Z" fill="white"/>
<path d="M11.0099 2.86011L11.7099 5.01011L9.87988 3.68011H12.1399L10.3099 5.01011L11.0099 2.86011Z" fill="white"/>
<path d="M11.0099 7.02002L11.7099 9.17002L9.87988 7.84002H12.1399L10.3099 9.17002L11.0099 7.02002Z" fill="white"/>
<path d="M11.0099 11.1799L11.7099 13.3299L9.87988 11.9999H12.1399L10.3099 13.3299L11.0099 11.1799Z" fill="white"/>
<path d="M11.0099 15.3401L11.7099 17.4901L9.87988 16.1601H12.1399L10.3099 17.4901L11.0099 15.3401Z" fill="white"/>
<path d="M13.4601 0.780029L14.1601 2.93003L12.3301 1.60003H14.5901L12.7601 2.93003L13.4601 0.780029Z" fill="white"/>
<path d="M13.4601 4.93994L14.1601 7.08994L12.3301 5.75994H14.5901L12.7601 7.08994L13.4601 4.93994Z" fill="white"/>
<path d="M13.4601 9.1001L14.1601 11.2501L12.3301 9.9201H14.5901L12.7601 11.2501L13.4601 9.1001Z" fill="white"/>
<path d="M13.4601 13.26L14.1601 15.41L12.3301 14.08H14.5901L12.7601 15.41L13.4601 13.26Z" fill="white"/>
<path d="M13.4601 17.4199L14.1601 19.5699L12.3301 18.2399H14.5901L12.7601 19.5699L13.4601 17.4199Z" fill="white"/>
<path d="M15.9 2.86011L16.6 5.01011L14.77 3.68011H17.03L15.21 5.01011L15.9 2.86011Z" fill="white"/>
<path d="M15.9 7.02002L16.6 9.17002L14.77 7.84002H17.03L15.21 9.17002L15.9 7.02002Z" fill="white"/>
<path d="M15.9 11.1799L16.6 13.3299L14.77 11.9999H17.03L15.21 13.3299L15.9 11.1799Z" fill="white"/>
<path d="M15.9 15.3401L16.6 17.4901L14.77 16.1601H17.03L15.21 17.4901L15.9 15.3401Z" fill="white"/>
<path d="M18.3502 0.780029L19.0502 2.93003L17.2202 1.60003H19.4802L17.6502 2.93003L18.3502 0.780029Z" fill="white"/>
<path d="M18.3502 4.93994L19.0502 7.08994L17.2202 5.75994H19.4802L17.6502 7.08994L18.3502 4.93994Z" fill="white"/>
<path d="M18.3502 9.1001L19.0502 11.2501L17.2202 9.9201H19.4802L17.6502 11.2501L18.3502 9.1001Z" fill="white"/>
<path d="M18.3502 13.26L19.0502 15.41L17.2202 14.08H19.4802L17.6502 15.41L18.3502 13.26Z" fill="white"/>
<path d="M18.3502 17.4199L19.0502 19.5699L17.2202 18.2399H19.4802L17.6502 19.5699L18.3502 17.4199Z" fill="white"/>
</g>
<defs>
<clipPath id="clip0_55_147">
<rect width="55.2" height="38.4" fill="white"/>
</clipPath>
</defs>
</svg>
