<svg width="42" height="42" viewBox="0 0 42 42" fill="none" xmlns="http://www.w3.org/2000/svg">
<g clip-path="url(#clip0_43_119)">
<path d="M21 0C9.40275 0 0 9.40275 0 21C0 32.5972 9.40275 42 21 42C32.5972 42 42 32.5972 42 21C42 9.40275 32.5972 0 21 0ZM28.7717 29.561C25.0932 29.813 16.8998 29.813 13.2265 29.561C9.2435 29.288 8.77975 27.3385 8.75 21C8.77975 14.6493 9.24875 12.712 13.2265 12.439C16.8998 12.187 25.095 12.187 28.7717 12.439C32.7565 12.712 33.2185 14.6615 33.25 21C33.2185 27.3507 32.7512 29.288 28.7717 29.561ZM17.5 16.9015L26.1047 20.993L17.5 25.0985V16.9015V16.9015Z" fill="url(#paint0_linear_43_119)"/>
</g>
<defs>
<linearGradient id="paint0_linear_43_119" x1="21.1005" y1="-2.19608e-06" x2="21.1005" y2="42" gradientUnits="userSpaceOnUse">
<stop stop-color="#4361EE"/>
<stop offset="1" stop-color="#1810AC"/>
</linearGradient>
<clipPath id="clip0_43_119">
<rect width="42" height="42" fill="white"/>
</clipPath>
</defs>
</svg>
